<svg width="17" height="18" viewBox="0 0 17 18" fill="none" xmlns="http://www.w3.org/2000/svg">
<g clip-path="url(#clip0_744_20099)">
<path d="M12.1242 2.42655C10.9846 1.74395 9.68118 1.38323 8.35278 1.38281C7.24757 1.38216 6.15645 1.63098 5.16077 2.11072C4.16512 2.59046 3.29052 3.28874 2.60231 4.15353C1.91411 5.01832 1.42991 6.02729 1.18588 7.10524C0.941848 8.18319 0.94426 9.30232 1.19299 10.3792C1.44172 11.4561 1.93027 12.4629 2.62233 13.3247C3.31427 14.1865 4.19189 14.881 5.18966 15.3564C6.18741 15.8318 7.2796 16.0758 8.38482 16.0702C9.30726 16.0658 10.2189 15.8875 11.0725 15.5465L15.0865 16.2148C15.535 16.2896 15.9015 15.8597 15.7571 15.4287L14.7303 12.3639C15.3023 11.3606 15.6308 10.2344 15.686 9.07612C15.7492 7.74924 15.4513 6.43005 14.8241 5.25907C14.1969 4.08809 13.2638 3.10916 12.1242 2.42655Z" fill="white" fill-opacity="0.2" stroke="white" stroke-width="1.20568" stroke-linecap="round" stroke-linejoin="round"/>
<path d="M11.1797 7.07422H5.30198" stroke="white" stroke-width="1.20568" stroke-linecap="round" stroke-linejoin="round"/>
<path d="M11.1797 10.6875H6.73373" stroke="white" stroke-width="1.20568" stroke-linecap="round" stroke-linejoin="round"/>
</g>
<defs>
<clipPath id="clip0_744_20099">
<rect width="16.8796" height="16.8796" fill="white" transform="matrix(-1 0 0 1 16.9805 0.441406)"/>
</clipPath>
</defs>
</svg>
