<svg xmlns="http://www.w3.org/2000/svg" version="1.1" xmlns:xlink="http://www.w3.org/1999/xlink" xmlns:svgjs="http://svgjs.dev/svgjs" width="44" height="44"><svg width="44" height="44" viewBox="0 0 44 44" fill="none" xmlns="http://www.w3.org/2000/svg">
<rect width="44" height="44" rx="22" fill="#693AC4"></rect>
<path d="M20.1872 24.6196H35V34.1848H33.757V28.3696C33.757 28.3152 33.7052 28.2609 33.6534 28.3696C33.0319 29.4565 29.51 35 22.1036 35C14.6972 35 9 29.4022 9 22.5C9 15.5978 14.8526 10 22.1036 10C29.8752 10 35 16.4174 35 21.087H29.7689C28.6295 19.5652 27.1275 18.0978 25.2629 16.8478C19.8765 13.0978 13.9721 12.5 12.0558 15.5435C10.1394 18.587 12.9362 24.0761 18.2709 27.8261C28.6237 35.0684 32.8188 27.2819 33.296 26.2958C33.319 26.2483 33.2842 26.1957 33.2335 26.1957H19.9283V24.6196H20.1872Z" fill="white"></path>
</svg><style>@media (prefers-color-scheme: light) { :root { filter: none; } }
@media (prefers-color-scheme: dark) { :root { filter: none; } }
</style></svg>