<svg width="67" height="17" viewBox="0 0 67 17" fill="none" xmlns="http://www.w3.org/2000/svg">
<path d="M7.67261 9.55916H17.8317V15.8109H16.9792V12.0101C16.9792 11.9746 16.9437 11.9391 16.9082 12.0101C16.4819 12.7206 14.0665 16.3437 8.98691 16.3437C3.90735 16.3437 0 12.685 0 8.17383C0 3.66261 4.01391 0.00390625 8.98691 0.00390625C14.3169 0.00390625 17.8317 4.19829 17.8317 7.25027H14.2441C13.4626 6.25567 12.4325 5.2966 11.1537 4.4796C7.45948 2.02863 3.41004 1.63789 2.09575 3.62709C0.781454 5.61629 2.69962 9.20395 6.35832 11.6549C13.4586 16.3885 16.3358 11.2992 16.6631 10.6547C16.6788 10.6237 16.655 10.5893 16.6202 10.5893H7.49501V9.55916H7.67261Z" fill="#fff"/>
<path d="M39.6921 9.55525H49.8513V15.807H48.9988V12.0062C48.9988 11.9707 48.9632 11.9352 48.9277 12.0062C48.5014 12.7167 46.086 16.3398 41.0064 16.3398C35.9269 16.3398 32.0195 12.6811 32.0195 8.16992C32.0195 3.6587 36.0334 0 41.0064 0C46.3365 0 49.8513 4.19439 49.8513 7.24636H46.2636C45.4821 6.25176 44.452 5.29269 43.1732 4.4757C39.479 2.02472 35.4296 1.63399 34.1153 3.62319C32.801 5.61238 34.7191 9.20005 38.3778 11.651C45.4781 16.3846 48.3553 11.2953 48.6826 10.6508C48.6984 10.6198 48.6745 10.5854 48.6397 10.5854H39.5145V9.55525H39.6921Z" fill="#fff"/>
<path d="M27.8309 0.460938V16.339H24.1367V6.49957C24.1367 4.78217 25.8895 3.94126 26.5704 3.6794C26.6203 3.66018 26.6049 3.58683 26.5514 3.58683H21.8633V0.460938H27.8664H27.8309Z" fill="#fff"/>
<path d="M66.374 0.460938L60.5831 10.4943C60.5656 10.5246 60.5564 10.559 60.5564 10.5939V16.339H56.8977V10.7267L56.8713 10.6283L51 0.460938H54.7366L59.9935 9.56563C60.0144 9.60176 60.0666 9.60176 60.0874 9.56563L65.3437 0.460938H66.374Z" fill="#fff"/>
</svg>
