<svg width="70" height="24" viewBox="0 0 70 24" fill="none" xmlns="http://www.w3.org/2000/svg">
<path d="M14.0641 4.35909C16.4461 4.86486 18.9162 6.78024 19.9036 8.88724C20.4209 9.99138 20.7594 11.1693 20.6041 11.3259C20.5559 11.3745 19.776 11.4142 18.8711 11.4142H17.2259L16.2497 10.4898C14.2929 8.6366 12.5475 7.54452 10.3646 6.80709C9.10394 6.38121 6.8129 6.39472 6.07606 6.83233C3.12345 8.58565 5.20514 13.3374 10.2915 16.4548C12.2986 17.685 14.9705 18.2787 16.5833 17.853C17.6835 17.5625 18.8611 16.6761 19.3501 15.7701C19.5823 15.3399 19.7723 14.9073 19.7723 14.8087C19.7723 14.6811 18.4419 14.6295 15.1482 14.6295H10.524V14.2276V13.8257H15.6347H20.7451L20.6973 17.0008L20.6493 20.1759H20.2718H19.8943L19.9213 18.2065C19.9375 17.0227 19.8865 16.2372 19.7935 16.2372C19.7086 16.2372 19.4844 16.4892 19.2956 16.7973C19.1068 17.1053 18.5551 17.7143 18.0695 18.1506C13.4639 22.2892 5.98486 20.9223 3.56833 15.4999C3.22934 14.7395 3.12904 14.2252 3.06749 12.9312C3.0238 12.0138 3.06844 10.9471 3.17034 10.4677C3.75777 7.70609 6.19964 5.24766 9.16867 4.42838C10.153 4.15686 12.9265 4.11762 14.0641 4.35909Z" fill="#E0C6DB"/>
<path d="M42.6069 4.35909C44.9892 4.86486 47.4591 6.78024 48.4466 8.88724C48.964 9.99138 49.3023 11.1693 49.147 11.3259C49.0988 11.3745 48.3189 11.4142 47.4141 11.4142H45.7688L44.7927 10.4898C42.8359 8.6366 41.0905 7.54452 38.9076 6.80709C37.6468 6.38121 35.3558 6.39471 34.6191 6.83233C31.6664 8.58565 33.748 13.3374 38.8346 16.4548C40.8416 17.685 43.5135 18.2787 45.1261 17.853C46.2264 17.5625 47.4041 16.6761 47.8931 15.7701C48.1252 15.3399 48.3153 14.9073 48.3153 14.8087C48.3153 14.6811 46.9849 14.6295 43.6912 14.6295H39.067V14.2276V13.8257H44.1776H49.2882L49.2402 17.0008L49.1924 20.1759H48.815H48.4373L48.4641 18.2065C48.4805 17.0227 48.4295 16.2372 48.3365 16.2372C48.2515 16.2372 48.0274 16.4892 47.8386 16.7973C47.6498 17.1053 47.098 17.7143 46.6125 18.1506C42.0068 22.2892 34.5279 20.9223 32.1114 15.4999C31.7723 14.7395 31.672 14.2252 31.6105 12.9312C31.5667 12.0138 31.6115 10.9471 31.7134 10.4677C32.3008 7.70609 34.7425 5.24766 37.7116 4.42838C38.696 4.15686 41.4694 4.11762 42.6069 4.35909Z" fill="#E0C6DB"/>
<path d="M28.7025 12.458V20.4158H26.8687H25.035L25.0366 15.4723C25.038 10.6212 25.0449 10.5136 25.4125 9.72492C25.8296 8.82944 26.101 8.54778 27.0178 8.05873L27.645 7.72401L25.1879 7.67949L22.7305 7.63495L22.7615 6.26843C22.7787 5.51685 22.795 4.81157 22.7976 4.70097C22.8015 4.54759 23.5015 4.5 25.7526 4.5H28.7025V12.458Z" fill="#E0C6DB"/>
<path d="M54.6166 6.19079C57.3152 10.8646 59.1231 13.8601 59.251 13.8696C59.3312 13.8756 60.6221 11.8247 62.1189 9.31207C64.5625 5.21108 64.8869 4.73842 65.2903 4.69085C65.6615 4.64712 65.7261 4.68971 65.6617 4.93713C65.6191 5.10159 64.2835 7.42129 62.6937 10.0916L59.8033 14.9471L59.7597 17.7231L59.7159 20.4989H57.9621H56.2081L56.1284 17.6052L56.0485 14.7114L55.363 13.586C54.9858 12.9671 54.0825 11.484 53.3556 10.2903C52.6576 9.14405 51.7033 7.57689 51.1848 6.72546L51.1227 6.62358C50.6216 5.80062 50.1707 5.02042 50.1213 4.89003C50.0442 4.68796 50.3071 4.65965 51.9062 4.69839L53.7813 4.74389L54.6166 6.19079Z" fill="#E0C6DB"/>
</svg>
