<svg width="24" height="24" viewBox="0 0 24 24" fill="none" xmlns="http://www.w3.org/2000/svg">
<g clip-path="url(#clip0_2027_2635)">
<path d="M8.14868 1.28571V5.63859V1.28571Z" fill="#2C0527" fill-opacity="0.1"/>
<path d="M8.14868 1.28571V5.63859" stroke="#2C0527" stroke-width="1.71429" stroke-linecap="round"/>
<path d="M15.8396 1.28571V5.63859V1.28571Z" fill="#2C0527" fill-opacity="0.1"/>
<path d="M15.8396 1.28571V5.63859" stroke="#2C0527" stroke-width="1.71429" stroke-linecap="round"/>
<path d="M1.87177 18.0427C2.14836 20.5101 4.15397 22.4693 6.63406 22.5888C8.34826 22.6713 10.0994 22.7141 11.9999 22.7141C13.9004 22.7141 15.6515 22.6713 17.3658 22.5888C19.8459 22.4693 21.8514 20.5101 22.1281 18.0427C22.3143 16.3809 22.4672 14.6773 22.4672 12.9418C22.4672 11.2064 22.3143 9.50278 22.1281 7.84109C21.8514 5.37358 19.8459 3.41441 17.3658 3.29498C15.6515 3.21242 13.9004 3.16951 11.9999 3.16951C10.0994 3.16951 8.34826 3.21242 6.63406 3.29498C4.15397 3.41441 2.14836 5.37358 1.87177 7.84109C1.68552 9.50278 1.53271 11.2064 1.53271 12.9418C1.53271 14.6773 1.68552 16.3809 1.87177 18.0427Z" fill="#2C0527" fill-opacity="0.1" stroke="#2C0527" stroke-width="1.71429"/>
<path d="M6.85718 10.3705H7.71432H6.85718Z" fill="#2C0527" fill-opacity="0.1"/>
<path d="M6.85718 10.3705H7.71432" stroke="#2C0527" stroke-width="1.71429" stroke-linecap="round" stroke-linejoin="round"/>
<path d="M6.85718 15.5133H7.71432H6.85718Z" fill="#2C0527" fill-opacity="0.1"/>
<path d="M6.85718 15.5133H7.71432" stroke="#2C0527" stroke-width="1.71429" stroke-linecap="round" stroke-linejoin="round"/>
<path d="M11.5715 10.3705H12.4287H11.5715Z" fill="#2C0527" fill-opacity="0.1"/>
<path d="M11.5715 10.3705H12.4287" stroke="#2C0527" stroke-width="1.71429" stroke-linecap="round" stroke-linejoin="round"/>
<path d="M16.2856 10.3705H17.1428H16.2856Z" fill="#2C0527" fill-opacity="0.1"/>
<path d="M16.2856 10.3705H17.1428" stroke="#2C0527" stroke-width="1.71429" stroke-linecap="round" stroke-linejoin="round"/>
<path d="M11.5715 15.5133H12.4287H11.5715Z" fill="#2C0527" fill-opacity="0.1"/>
<path d="M11.5715 15.5133H12.4287" stroke="#2C0527" stroke-width="1.71429" stroke-linecap="round" stroke-linejoin="round"/>
</g>
<defs>
<clipPath id="clip0_2027_2635">
<rect width="24" height="24" fill="white"/>
</clipPath>
</defs>
</svg>
