<svg width="16" height="16" viewBox="0 0 16 16" fill="none" xmlns="http://www.w3.org/2000/svg">
<path d="M1.33876 12.6008C1.39969 13.1494 1.83588 13.5852 2.38428 13.6477C4.75151 13.9175 6.96114 13.9175 9.32836 13.6477C9.87676 13.5852 10.313 13.1494 10.3739 12.6008C10.6351 10.2488 10.6351 5.751 10.3739 3.39902C10.313 2.85044 9.87676 2.41462 9.32836 2.35211C6.96114 2.0823 4.75151 2.0823 2.38428 2.35211C1.83588 2.41462 1.39969 2.85043 1.33876 3.39902C1.07751 5.751 1.07751 10.2488 1.33876 12.6008Z" fill="#E3E3E3" fill-opacity="0.2"/>
<path d="M10.3739 3.39902C10.313 2.85044 9.87676 2.41462 9.32836 2.35211C6.96114 2.0823 4.75151 2.0823 2.38428 2.35211C1.83588 2.41462 1.39969 2.85043 1.33876 3.39902C1.07751 5.751 1.07751 10.2488 1.33876 12.6008C1.39969 13.1494 1.83588 13.5852 2.38428 13.6477C4.75151 13.9175 6.96114 13.9175 9.32836 13.6477C9.87676 13.5852 10.313 13.1494 10.3739 12.6008" stroke="#FF2A00" stroke-width="1.14286" stroke-linecap="round"/>
<path d="M6.54785 8H15.0593" stroke="#FF2A00" stroke-width="1.14286" stroke-linecap="round" stroke-linejoin="round"/>
<path d="M12.7493 10.6911C13.7825 9.87331 14.2633 9.31631 14.8922 8.48623C15.1148 8.19251 15.1148 7.80719 14.8922 7.51346C14.2633 6.68338 13.7825 6.12638 12.7493 5.30859" stroke="#FF2A00" stroke-width="1.14286" stroke-linecap="round" stroke-linejoin="round"/>
</svg>
