<svg width="98" height="24" viewBox="0 0 98 24" fill="none" xmlns="http://www.w3.org/2000/svg">
<path d="M11.2675 14.0356H26.1864V23.2165H24.9345V17.6349C24.9345 17.5828 24.8823 17.5306 24.8301 17.6349C24.2042 18.6782 20.657 23.9989 13.1975 23.9989C5.73806 23.9989 0 18.626 0 12.0012C0 5.37633 5.89455 0.00341797 13.1975 0.00341797C21.0248 0.00341797 26.1864 6.16299 26.1864 10.6449H20.9178C19.7702 9.18431 18.2574 7.77588 16.3795 6.57611C10.9545 2.97678 5.00775 2.40298 3.07767 5.32417C1.14759 8.24536 3.96446 13.5139 9.33737 17.1133C19.7644 24.0646 23.9895 16.5909 24.4702 15.6444C24.4933 15.5988 24.4583 15.5484 24.4072 15.5484H11.0066V14.0356H11.2675Z" fill="#9C5DFE"/>
<path d="M58.2894 14.0322H73.2084V23.2131H71.9564V17.6315C71.9564 17.5793 71.9043 17.5272 71.8521 17.6315C71.2261 18.6748 67.679 23.9955 60.2195 23.9955C52.76 23.9955 47.022 18.6226 47.022 11.9978C47.022 5.37291 52.9165 0 60.2195 0C68.0468 0 73.2084 6.15957 73.2084 10.6415H67.9398C66.7922 9.18089 65.2794 7.77246 63.4015 6.57269C57.9764 2.97336 52.0297 2.39956 50.0996 5.32075C48.1696 8.24195 50.9864 13.5105 56.3593 17.1099C66.7863 24.0612 71.0115 16.5875 71.4922 15.641C71.5153 15.5954 71.4803 15.5449 71.4292 15.5449H58.0286V14.0322H58.2894Z" fill="#9C5DFE"/>
<path d="M40.8727 0.683044V24.0004H35.4477V9.55095C35.4477 7.0289 38.0218 5.79399 39.0216 5.40945C39.095 5.38123 39.0724 5.2735 38.9938 5.2735H32.1091V0.683044H40.9249H40.8727Z" fill="#9C5DFE"/>
<path d="M97.4761 0.683044L88.972 15.4173C88.9463 15.4618 88.9328 15.5123 88.9328 15.5636V24.0004H83.5599V15.7586L83.5211 15.6141L74.8989 0.683044H80.3863L88.1062 14.0535C88.1368 14.1066 88.2134 14.1066 88.2441 14.0535L95.9631 0.683044H97.4761Z" fill="#9C5DFE"/>
</svg>
