<svg width="26" height="26" viewBox="0 0 26 26" fill="none" xmlns="http://www.w3.org/2000/svg">
<rect x="1.35547" y="0.351562" width="24" height="24" rx="12" transform="rotate(2 1.35547 0.351562)" fill="#F84865"/>
<path d="M13.6608 12.7878L16.8828 9.78322C17.0925 9.58778 17.1039 9.26034 16.9084 9.05078C16.713 8.8412 16.3855 8.82976 16.176 9.0252L12.9539 12.0298L9.94941 8.80777C9.75387 8.59818 9.42655 8.58675 9.21697 8.78219C9.00728 8.97763 8.99585 9.30504 9.19139 9.51463L12.1959 12.7367L8.97397 15.7412C8.76429 15.9367 8.75286 16.2641 8.9484 16.4737C8.99475 16.5235 9.0505 16.5637 9.11244 16.592C9.17438 16.6202 9.24128 16.6359 9.30932 16.6382C9.4419 16.6429 9.5763 16.5967 9.68084 16.4992L12.9027 13.4947L15.9074 16.7167C15.9537 16.7665 16.0095 16.8067 16.0714 16.835C16.1333 16.8632 16.2003 16.8789 16.2683 16.8812C16.4009 16.8859 16.5353 16.8397 16.6398 16.7423C16.8495 16.5468 16.8609 16.2194 16.6654 16.0098L13.6608 12.7878Z" fill="white"/>
</svg>
