<svg width="18" height="18" viewBox="0 0 18 18" fill="none" xmlns="http://www.w3.org/2000/svg">
<path d="M13.297 0.507812H4.43835C1.99099 0.507812 0 2.49939 0 4.94747V13.0542C0 15.5023 1.99099 17.4939 4.43835 17.4939H13.297C15.7443 17.4939 17.7353 15.5023 17.7353 13.0542V4.94747C17.7353 2.49939 15.7443 0.507812 13.297 0.507812ZM1.56571 4.94747C1.56571 3.36324 2.85458 2.07398 4.43835 2.07398H13.297C14.8808 2.07398 16.1696 3.36324 16.1696 4.94747V13.0542C16.1696 14.6385 14.8808 15.9277 13.297 15.9277H4.43835C2.85458 15.9277 1.56571 14.6385 1.56571 13.0542V4.94747Z" fill="#E0C6DB"/>
<path d="M8.8667 13.1304C11.1425 13.1304 12.9951 11.2782 12.9951 9.00073C12.9951 6.72321 11.1435 4.87109 8.8667 4.87109C6.58985 4.87109 4.73828 6.72321 4.73828 9.00073C4.73828 11.2782 6.58985 13.1304 8.8667 13.1304ZM8.8667 6.43827C10.28 6.43827 11.4294 7.58806 11.4294 9.00173C11.4294 10.4154 10.28 11.5652 8.8667 11.5652C7.45345 11.5652 6.30399 10.4154 6.30399 9.00173C6.30399 7.58806 7.45345 6.43827 8.8667 6.43827Z" fill="#E0C6DB"/>
<path d="M13.378 5.53785C13.9908 5.53785 14.4903 5.0392 14.4903 4.42517C14.4903 3.81115 13.9918 3.3125 13.378 3.3125C12.7641 3.3125 12.2656 3.81115 12.2656 4.42517C12.2656 5.0392 12.7641 5.53785 13.378 5.53785Z" fill="#E0C6DB"/>
</svg>
