<svg width="26" height="25" viewBox="0 0 26 25" fill="none" xmlns="http://www.w3.org/2000/svg">
<path d="M13 0.0078125C9.60522 0.0078125 9.17952 0.0222144 7.84625 0.0830222C6.51577 0.143718 5.60712 0.355057 4.812 0.664009C3.99001 0.983455 3.29292 1.4109 2.59802 2.1058C1.90308 2.80069 1.47564 3.49786 1.15623 4.31985C0.847208 5.11493 0.635943 6.02359 0.575173 7.35407C0.514365 8.68734 0.5 9.11303 0.5 12.5078C0.5 15.9026 0.514365 16.3283 0.575173 17.6616C0.635943 18.992 0.847208 19.9007 1.15623 20.6958C1.47568 21.5178 1.90312 22.2149 2.59802 22.9098C3.29296 23.6047 3.99001 24.0322 4.812 24.3516C5.60712 24.6606 6.51577 24.8719 7.84625 24.9326C9.17952 24.9934 9.60522 25.0078 13 25.0078C16.3948 25.0078 16.8205 24.9934 18.1537 24.9326C19.4842 24.8719 20.3929 24.6606 21.188 24.3516C22.0099 24.0322 22.707 23.6047 23.402 22.9098C24.0969 22.2149 24.5244 21.5178 24.8438 20.6958C25.1528 19.9007 25.3641 18.992 25.4248 17.6616C25.4856 16.3283 25.5 15.9026 25.5 12.5078C25.5 9.11303 25.4856 8.68734 25.4248 7.35407C25.3641 6.02359 25.1528 5.11493 24.8438 4.31985C24.5244 3.49786 24.0969 2.80069 23.402 2.1058C22.707 1.4109 22.0099 0.983455 21.188 0.664009C20.3929 0.355057 19.4842 0.143718 18.1537 0.0830222C16.8205 0.0222144 16.3948 0.0078125 13 0.0078125ZM13 2.26005C16.3376 2.26005 16.733 2.27281 18.0511 2.33295C19.2698 2.38851 19.9317 2.59215 20.3721 2.76333C20.9556 2.99011 21.372 3.26096 21.8094 3.69837C22.2469 4.13579 22.5177 4.55221 22.7445 5.13566C22.9157 5.57612 23.1193 6.23801 23.1749 7.45674C23.235 8.77483 23.2478 9.17019 23.2478 12.5078C23.2478 15.8454 23.235 16.2408 23.1749 17.5589C23.1193 18.7776 22.9157 19.4395 22.7445 19.8799C22.5177 20.4634 22.2469 20.8798 21.8094 21.3172C21.372 21.7547 20.9556 22.0255 20.3722 22.2523C19.9317 22.4235 19.2698 22.6271 18.0511 22.6827C16.7332 22.7428 16.3379 22.7556 13 22.7556C9.66212 22.7556 9.26687 22.7428 7.94893 22.6826C6.73017 22.6271 6.06831 22.4235 5.62788 22.2523C5.04436 22.0255 4.62798 21.7547 4.1906 21.3172C3.75318 20.8798 3.4823 20.4634 3.25552 19.88C3.08433 19.4395 2.88074 18.7776 2.82514 17.5589C2.765 16.2408 2.75224 15.8454 2.75224 12.5078C2.75224 9.17019 2.765 8.77483 2.82514 7.45674C2.88074 6.23798 3.08433 5.57612 3.25552 5.13569C3.4823 4.55218 3.75318 4.13579 4.19056 3.69841C4.62798 3.26096 5.0444 2.99011 5.62784 2.76333C6.06831 2.59215 6.7302 2.38851 7.94893 2.33295C9.26701 2.27281 9.66238 2.26005 13 2.26005" fill="#491042"/>
<path d="M13.001 16.6752C10.6997 16.6752 8.83427 14.8097 8.83427 12.5085C8.83427 10.2073 10.6997 8.34181 13.001 8.34181C15.3022 8.34181 17.1676 10.2073 17.1676 12.5085C17.1676 14.8097 15.3022 16.6752 13.001 16.6752ZM13.001 6.08958C9.45585 6.08958 6.58203 8.9634 6.58203 12.5085C6.58203 16.0536 9.45585 18.9274 13.001 18.9274C16.546 18.9274 19.4199 16.0536 19.4199 12.5085C19.4199 8.9634 16.546 6.08958 13.001 6.08958ZM21.1735 5.83596C21.1735 6.66442 20.5019 7.33595 19.6735 7.33595C18.8451 7.33595 18.1735 6.66442 18.1735 5.83596C18.1735 5.00754 18.8451 4.33594 19.6735 4.33594C20.5019 4.33594 21.1735 5.00754 21.1735 5.83596Z" fill="#491042"/>
</svg>
