<svg width="44" height="44" viewBox="0 0 44 44" fill="none" xmlns="http://www.w3.org/2000/svg">
<rect width="44" height="44" rx="22" fill="#693AC4"/>
<path d="M24.8904 11.115C28.2594 11.8245 31.7528 14.5112 33.1492 17.4668C33.881 19.0156 34.3595 20.6679 34.1398 20.8876C34.0717 20.9557 32.9688 21.0114 31.689 21.0114H29.3621L27.9815 19.7147C25.2141 17.1152 22.7456 15.5833 19.6583 14.5489C17.8754 13.9515 14.6353 13.9704 13.5932 14.5843C9.41734 17.0437 12.3614 23.7092 19.555 28.0821C22.3936 29.8077 26.1725 30.6406 28.4533 30.0434C30.0094 29.6359 31.6748 28.3924 32.3664 27.1217C32.6948 26.5182 32.9636 25.9113 32.9636 25.7731C32.9636 25.594 31.0819 25.5217 26.4237 25.5217H19.8838V24.9579V24.3941H27.1117H34.3394L34.2718 28.848L34.2039 33.3018H33.6701H33.1361L33.1742 30.5393C33.1972 28.8786 33.125 27.7768 32.9936 27.7768C32.8734 27.7768 32.5563 28.1304 32.2893 28.5625C32.0223 28.9945 31.242 29.8488 30.5553 30.4608C24.0416 36.2662 13.4642 34.3487 10.0465 26.7426C9.56708 25.6759 9.42523 24.9545 9.33819 23.1393C9.2764 21.8526 9.33954 20.3563 9.48364 19.6838C10.3144 15.8099 13.7679 12.3614 17.967 11.2122C19.3591 10.8313 23.2816 10.7763 24.8904 11.115Z" fill="white"/>
</svg>
