<svg width="99" height="34" viewBox="0 0 99 34" fill="none" xmlns="http://www.w3.org/2000/svg">
<path d="M19.8904 6.115C23.2594 6.82446 26.7528 9.51122 28.1492 12.4668C28.881 14.0156 29.3595 15.6679 29.1398 15.8876C29.0717 15.9557 27.9688 16.0114 26.689 16.0114H24.3621L22.9815 14.7147C20.2141 12.1152 17.7456 10.5833 14.6583 9.54888C12.8754 8.9515 9.63525 8.97044 8.59316 9.58429C4.41734 12.0437 7.36141 18.7092 14.555 23.0821C17.3936 24.8077 21.1725 25.6406 23.4533 25.0434C25.0094 24.6359 26.6748 23.3924 27.3664 22.1217C27.6948 21.5182 27.9636 20.9113 27.9636 20.7731C27.9636 20.594 26.0819 20.5217 21.4237 20.5217H14.8838V19.9579V19.3941H22.1117H29.3394L29.2718 23.848L29.2039 28.3018H28.6701H28.1361L28.1742 25.5393C28.1972 23.8786 28.125 22.7768 27.9936 22.7768C27.8734 22.7768 27.5563 23.1304 27.2893 23.5625C27.0223 23.9945 26.242 24.8488 25.5553 25.4608C19.0416 31.2662 8.46417 29.3487 5.04652 21.7426C4.56708 20.6759 4.42523 19.9545 4.33819 18.1393C4.2764 16.8526 4.33954 15.3563 4.48364 14.6838C5.31443 10.8099 8.76793 7.36141 12.967 6.2122C14.3591 5.83131 18.2816 5.77628 19.8904 6.115Z" fill="white"/>
<path d="M60.2576 6.115C63.6266 6.82446 67.12 9.51122 68.5164 12.4668C69.2481 14.0156 69.7267 15.6679 69.507 15.8876C69.4389 15.9557 68.3359 16.0114 67.0562 16.0114H64.7293L63.3487 14.7147C60.5812 12.1152 58.1128 10.5833 55.0255 9.54888C53.2426 8.9515 50.0024 8.97044 48.9603 9.58429C44.7845 12.0437 47.7286 18.7092 54.9222 23.0821C57.7608 24.8077 61.5397 25.6406 63.8205 25.0434C65.3765 24.6359 67.042 23.3924 67.7336 22.1217C68.0619 21.5182 68.3308 20.9113 68.3308 20.7731C68.3308 20.594 66.4491 20.5217 61.7909 20.5217H55.251V19.9579V19.3941H62.4789H69.7066L69.639 23.848L69.5711 28.3018H69.0373H68.5033L68.5414 25.5393C68.5644 23.8786 68.4922 22.7768 68.3608 22.7768C68.2406 22.7768 67.9235 23.1304 67.6565 23.5625C67.3895 23.9945 66.6092 24.8488 65.9225 25.4608C59.4088 31.2662 48.8314 29.3487 45.4137 21.7426C44.9343 20.6759 44.7924 19.9545 44.7054 18.1393C44.6436 16.8526 44.7067 15.3563 44.8508 14.6838C45.6816 10.8099 49.1351 7.36141 53.3342 6.2122C54.7263 5.83131 58.6488 5.77628 60.2576 6.115Z" fill="white"/>
<path d="M40.5933 17.4768V28.6396H37.9999H35.4065L35.4087 21.7051C35.4108 14.9003 35.4207 14.7494 35.9405 13.6431C36.5304 12.3869 36.9142 11.9918 38.2107 11.3058L39.0979 10.8363L35.6227 10.7739L32.1474 10.7114L32.1913 8.79453C32.2155 7.74026 32.2385 6.75093 32.2423 6.59578C32.2477 6.38064 33.2377 6.31389 36.4213 6.31389H40.5933V17.4768Z" fill="white"/>
<path d="M77.2425 8.68224C81.0589 15.2383 83.6157 19.4403 83.7966 19.4536C83.9102 19.462 85.7358 16.5851 87.8529 13.0606C91.3086 7.30796 91.7673 6.64496 92.3379 6.5782C92.8631 6.51687 92.9542 6.57663 92.8633 6.92369C92.8031 7.15439 90.914 10.4083 88.6656 14.1541L84.5778 20.965L84.5162 24.8589L84.4544 28.7529H81.9738H79.4931L79.3804 24.6936L79.2676 20.6344L78.2979 19.0558C77.7646 18.1876 76.487 16.1072 75.4589 14.4328C74.4719 12.8249 73.1221 10.6266 72.3888 9.43223L72.3011 9.28932C71.5923 8.13492 70.9548 7.04051 70.8846 6.85761C70.7757 6.57415 71.1474 6.53445 73.409 6.5888L76.061 6.65262L77.2425 8.68224Z" fill="white"/>
</svg>
