<svg width="91" height="23" viewBox="0 0 91 23" fill="none" xmlns="http://www.w3.org/2000/svg">
<path d="M10.4896 13.0673H24.3786V21.6144H23.2131V16.4182C23.2131 16.3696 23.1645 16.3211 23.116 16.4182C22.5332 17.3895 19.2309 22.3429 12.2864 22.3429C5.34193 22.3429 0 17.3409 0 11.1734C0 5.00589 5.48761 0.00390625 12.2864 0.00390625C19.5734 0.00390625 24.3786 5.73825 24.3786 9.91075H19.4737C18.4054 8.55099 16.997 7.23979 15.2488 6.12285C10.1982 2.772 4.66203 2.23781 2.8652 4.95734C1.06836 7.67686 3.69077 12.5817 8.69276 15.9326C18.3999 22.404 22.3334 15.4463 22.7809 14.5651C22.8024 14.5227 22.7698 14.4757 22.7223 14.4757H10.2468V13.0673H10.4896Z" fill="white"/>
<path d="M54.263 13.0634H68.152V21.6105H66.9865V16.4143C66.9865 16.3657 66.938 16.3172 66.8894 16.4143C66.3066 17.3856 63.0044 22.339 56.0599 22.339C49.1154 22.339 43.7734 17.337 43.7734 11.1695C43.7734 5.00199 49.261 0 56.0599 0C63.3468 0 68.152 5.73434 68.152 9.90685H63.2472C62.1788 8.54708 60.7705 7.23589 59.0222 6.11894C53.9717 2.76809 48.4355 2.2339 46.6386 4.95343C44.8418 7.67296 47.4642 12.5778 52.4662 15.9287C62.1733 22.4001 66.1068 15.4424 66.5543 14.5612C66.5759 14.5188 66.5433 14.4718 66.4957 14.4718H54.0202V13.0634H54.263Z" fill="white"/>
<path d="M38.0492 0.632812V22.3405H32.9987V8.88852C32.9987 6.54058 35.3951 5.39092 36.3259 5.03293C36.3942 5.00665 36.3732 4.90636 36.3 4.90636H29.8906V0.632812H38.0978H38.0492Z" fill="white"/>
<path d="M90.7451 0.632812L82.828 14.3499C82.8041 14.3913 82.7916 14.4383 82.7916 14.4861V22.3405H77.7896V14.6676L77.7535 14.5331L69.7266 0.632812H74.8351L82.022 13.0803C82.0506 13.1297 82.1219 13.1297 82.1504 13.0803L89.3366 0.632812H90.7451Z" fill="white"/>
</svg>
