<svg width="24" height="24" viewBox="0 0 24 24" fill="none" xmlns="http://www.w3.org/2000/svg">
<path d="M19.403 8.12821H5.52239C5.22388 8.12821 5 7.91667 5 7.5641C5 7.21154 5.22388 7 5.59702 7H19.403C19.7015 7 20 7.21154 20 7.5641C20 7.91667 19.7015 8.12821 19.403 8.12821ZM19.403 13.0641H5.52239C5.22388 13.0641 5 12.8526 5 12.5C5 12.1474 5.22388 11.9359 5.59702 11.9359H19.403C19.7015 11.9359 20 12.1474 20 12.5C20 12.8526 19.7015 13.0641 19.403 13.0641ZM19.403 18H5.52239C5.22388 18 5 17.7885 5 17.4359C5 17.0833 5.22388 16.8718 5.59702 16.8718H19.403C19.7015 16.8718 20 17.0833 20 17.4359C20 17.7885 19.7015 18 19.403 18Z" fill="white"/>
</svg>
