<svg width="24" height="24" viewBox="0 0 24 24" fill="none" xmlns="http://www.w3.org/2000/svg">
<path d="M13.5077 12.5001L17.791 8.21669C18.0697 7.93806 18.0697 7.48756 17.791 7.20897C17.5123 6.93034 17.0618 6.93034 16.7833 7.20897L12.4999 11.4923L8.21676 7.20897C7.93801 6.93034 7.48768 6.93034 7.20906 7.20897C6.93031 7.48759 6.93031 7.93806 7.20906 8.21669L11.4922 12.5001L7.2091 16.7835C6.93035 17.0621 6.93035 17.5126 7.2091 17.7912C7.27518 17.8575 7.35372 17.91 7.44019 17.9459C7.52665 17.9817 7.61935 18.0001 7.71294 18C7.89535 18 8.07782 17.9302 8.21679 17.7912L12.4999 13.5078L16.7833 17.7912C16.8494 17.8575 16.9279 17.91 17.0144 17.9459C17.1008 17.9817 17.1935 18.0001 17.2871 18C17.4695 18 17.652 17.9302 17.791 17.7912C18.0697 17.5126 18.0697 17.0621 17.791 16.7835L13.5077 12.5001Z" fill="white"/>
</svg>
