<svg width="48" height="40" viewBox="0 0 48 40" fill="none" xmlns="http://www.w3.org/2000/svg">
<path d="M0 20C0 14.6957 2.10714 9.60859 5.85786 5.85786C9.60859 2.10714 14.6957 0 20 0C25.3043 0 30.3914 2.10714 34.1421 5.85786C37.8929 9.60859 40 14.6957 40 20C40 25.3043 37.8929 30.3914 34.1421 34.1421C30.3914 37.8929 25.3043 40 20 40C14.6957 40 9.60859 37.8929 5.85786 34.1421C2.10714 30.3914 0 25.3043 0 20Z" fill="#693AC4"/>
<path d="M36 32C39.6116 27.1941 44.3884 27.1941 48 32V8C44.3884 12.8059 39.6116 12.8059 36 8V32Z" fill="#693AC4"/>
<path d="M22.4458 9.20799C25.5703 9.86598 28.8102 12.3578 30.1053 15.0989C30.784 16.5354 31.2278 18.0678 31.0241 18.2715C30.9609 18.3347 29.9379 18.3863 28.751 18.3863H26.593L25.3126 17.1837C22.7459 14.7729 20.4565 13.3521 17.5933 12.3927C15.9397 11.8387 12.9347 11.8563 11.9682 12.4256C8.09533 14.7066 10.8258 20.8884 17.4975 24.944C20.13 26.5445 23.6348 27.3169 25.7501 26.763C27.1933 26.3851 28.7378 25.2318 29.3793 24.0533C29.6838 23.4936 29.9331 22.9308 29.9331 22.8026C29.9331 22.6365 28.188 22.5694 23.8678 22.5694H17.8024V22.0465V21.5236H24.5059H31.2092L31.1464 25.6543L31.0835 29.785H30.5884H30.0931L30.1285 27.2229C30.1498 25.6828 30.0829 24.6609 29.961 24.6609C29.8495 24.6609 29.5554 24.9888 29.3078 25.3895C29.0601 25.7903 28.3365 26.5825 27.6996 27.1502C21.6585 32.5343 11.8485 30.7559 8.67886 23.7017C8.23421 22.7124 8.10265 22.0433 8.02192 20.3599C7.96461 19.1665 8.02317 17.7788 8.15682 17.1551C8.92733 13.5623 12.1303 10.364 16.0246 9.29814C17.3157 8.94488 20.9537 8.89385 22.4458 9.20799Z" fill="white"/>
</svg>
