<svg width="18" height="15" viewBox="0 0 18 15" fill="none" xmlns="http://www.w3.org/2000/svg">
<path d="M0.455731 7.05353C0.495567 7.03361 0.535422 7.01468 0.574262 6.99675C1.24948 6.68394 1.93366 6.39106 2.61685 6.09818C2.6537 6.09818 2.71543 6.05535 2.75028 6.0414C2.80307 6.01849 2.85586 5.99657 2.90864 5.97366L3.21239 5.84316C3.41556 5.75649 3.61771 5.66982 3.82087 5.58315C4.2262 5.40981 4.63153 5.23648 5.03686 5.06214C5.84752 4.71547 6.6592 4.3678 7.46986 4.02112C8.28052 3.67445 9.09217 3.32678 9.90283 2.9801C10.7135 2.63343 11.5251 2.28576 12.3358 1.93908C13.1465 1.59241 13.9581 1.24474 14.7688 0.898064C14.9491 0.820361 15.1442 0.704803 15.3375 0.670933C15.4998 0.642043 15.6581 0.586257 15.8214 0.555375C16.1312 0.4966 16.4728 0.472691 16.7695 0.6012C16.8721 0.646028 16.9667 0.708788 17.0454 0.787487C17.4219 1.16006 17.3691 1.77172 17.2894 2.29572C16.7347 5.94776 16.18 9.60079 15.6243 13.2528C15.5486 13.7539 15.445 14.3038 15.0496 14.6206C14.715 14.8886 14.239 14.9185 13.8257 14.8049C13.4124 14.6903 13.0479 14.4502 12.6903 14.2142C11.2075 13.2319 9.72357 12.2497 8.24068 11.2674C7.88813 11.0343 7.49576 10.7295 7.49974 10.3061C7.50173 10.0511 7.65409 9.82394 7.80945 9.62171C9.09814 7.94014 10.9575 6.78456 12.3408 5.18069C12.536 4.95456 12.6894 4.54612 12.4215 4.41562C12.2621 4.33791 12.0789 4.44351 11.9335 4.54412C10.105 5.81427 8.27753 7.08541 6.44906 8.35555C5.85252 8.76997 5.2271 9.19634 4.50806 9.29795C3.86471 9.3896 3.21738 9.21028 2.59494 9.02699C2.07309 8.87357 1.55222 8.71617 1.03336 8.55379C0.757493 8.46812 0.472664 8.37548 0.259542 8.18122C0.0464202 7.98696 -0.0760587 7.66021 0.0524121 7.4012C0.13308 7.23882 0.289439 7.13621 0.453762 7.05253L0.455731 7.05353Z" fill="#E0C6DB"/>
</svg>
